<?xml version='1.0' encoding='iso-8859-1'?>
<svg version="1.1" xmlns="http://www.w3.org/2000/svg" viewBox="0 0 463 463" xmlns:xlink="http://www.w3.org/1999/xlink" enable-background="new 0 0 463 463">
  <g>
    <path d="m399.5,72h-48.5v-26.234c9.29-3.138 16-11.93 16-22.266 0-12.958-10.542-23.5-23.5-23.5h-224c-12.958,0-23.5,10.542-23.5,23.5 0,10.336 6.71,19.128 16,22.266v26.234h-48.5c-8.547,0-15.5,6.953-15.5,15.5v32c0,48.248 39.252,87.5 87.5,87.5 0.1,0 0.197-0.011 0.296-0.015 17.033,22.746 41.975,39.238 70.708,45.377-4.074,5.309-6.504,11.944-6.504,19.138 0,10.474 5.143,19.764 13.031,25.495-3.147,3.998-5.031,9.034-5.031,14.505v64c0,13.51-10.99,24.5-24.5,24.5h-8-24c-8.547,0-15.5,6.953-15.5,15.5v32c0,8.547 6.953,15.5 15.5,15.5h160c8.547,0 15.5-6.953 15.5-15.5v-32c0-8.547-6.953-15.5-15.5-15.5h-24-8c-13.51,0-24.5-10.99-24.5-24.5v-64c0-5.471-1.885-10.507-5.031-14.505 7.888-5.731 13.031-15.021 13.031-25.495 0-7.194-2.43-13.829-6.504-19.138 28.733-6.139 53.675-22.631 70.708-45.377 0.099,0.004 0.196,0.015 0.296,0.015 48.248,0 87.5-39.252 87.5-87.5v-32c5.68434e-14-8.547-6.953-15.5-15.5-15.5zm-280-57h224c4.687,0 8.5,3.813 8.5,8.5s-3.813,8.5-8.5,8.5h-224c-4.687,0-8.5-3.813-8.5-8.5s3.813-8.5 8.5-8.5zm-56.5,104.5v-32c0-0.275 0.225-0.5 0.5-0.5h48.5v48.5c0,20.16 5.025,39.166 13.878,55.842-35.442-4.723-62.878-35.129-62.878-71.842zm248.5,295.5c0.275,0 0.5,0.225 0.5,0.5v32c0,0.275-0.225,0.5-0.5,0.5h-160c-0.275,0-0.5-0.225-0.5-0.5v-32c0-0.275 0.225-0.5 0.5-0.5h160zm-71.5-103.5v64c0,9.25 3.205,17.761 8.551,24.5h-34.101c5.346-6.739 8.551-15.25 8.551-24.5v-64c0-4.687 3.813-8.5 8.5-8.5s8.499,3.813 8.499,8.5zm8-40c0,9.098-7.402,16.5-16.5,16.5s-16.5-7.402-16.5-16.5 7.402-16.5 16.5-16.5 16.5,7.402 16.5,16.5zm-16.5-31.5c-57.621,0-104.5-46.879-104.5-104.5v-88.5h209v88.5c0,57.621-46.879,104.5-104.5,104.5zm168.5-120.5c0,36.713-27.436,67.119-62.878,71.842 8.853-16.676 13.878-35.682 13.878-55.842v-48.5h48.5c0.275,0 0.5,0.225 0.5,0.5v32z"/>
  </g>
</svg>
