<?xml version="1.0" encoding="iso-8859-1"?>
<!-- Generator: Adobe Illustrator 18.0.0, SVG Export Plug-In . SVG Version: 6.00 Build 0)  -->
<!DOCTYPE svg PUBLIC "-//W3C//DTD SVG 1.1//EN" "http://www.w3.org/Graphics/SVG/1.1/DTD/svg11.dtd">
<svg version="1.1" id="Capa_1" xmlns="http://www.w3.org/2000/svg" xmlns:xlink="http://www.w3.org/1999/xlink" x="0px" y="0px"
	 viewBox="0 0 490 490" style="enable-background:new 0 0 490 490;" xml:space="preserve">
<g>
	<path d="M490,414.771l-55.551-0.121V54.816l7.237-7.135l-10.751-10.901l-7.955,7.842L59.312,44.585V0.007H44v44.576L0,44.579
		v15.312l44,0.005v369.215l375.137,0.818v60.064h15.312v-60.031l55.521,0.121L490,414.771z M70.209,413.852l8.744-8.618
		l-10.751-10.908l-8.89,8.762V59.898l348.136,0.037l-7.6,7.493l10.751,10.901l8.538-8.417v344.704L70.209,413.852z"/>
	<polygon points="192.574,271.74 203.326,282.641 234.413,251.994 223.662,241.093 	"/>
	<polygon points="88.934,373.896 99.685,384.797 130.773,354.151 120.022,343.25 	"/>
	<polygon points="140.754,322.82 151.505,333.721 182.593,303.071 171.842,292.17 	"/>
	
		<rect x="257.652" y="188.961" transform="matrix(-0.702 -0.7122 0.7122 -0.702 301.4198 547.7158)" width="15.316" height="43.659"/>
	<polygon points="348.027,118.508 358.779,129.408 389.866,98.762 379.115,87.861 	"/>
	
		<rect x="309.472" y="137.881" transform="matrix(-0.702 -0.7122 0.7122 -0.702 425.9956 497.6865)" width="15.316" height="43.659"/>
	<rect x="457.557" y="2.256" transform="matrix(0.702 0.7122 -0.7122 0.702 148.4374 -327.2375)" width="15.316" height="22.969"/>
</g>
<g>
</g>
<g>
</g>
<g>
</g>
<g>
</g>
<g>
</g>
<g>
</g>
<g>
</g>
<g>
</g>
<g>
</g>
<g>
</g>
<g>
</g>
<g>
</g>
<g>
</g>
<g>
</g>
<g>
</g>
</svg>
