<?xml version="1.0" encoding="iso-8859-1"?>
<!-- Generator: Adobe Illustrator 19.0.0, SVG Export Plug-In . SVG Version: 6.00 Build 0)  -->
<svg xmlns="http://www.w3.org/2000/svg" xmlns:xlink="http://www.w3.org/1999/xlink" version="1.1" id="Layer_1" x="0px" y="0px" viewBox="0 0 512 512" style="enable-background:new 0 0 512 512;" xml:space="preserve" width="512px" height="512px">
<g>
	<g>
		<g>
			<path d="M204.807,332.8v119.467c0,4.71,3.814,8.533,8.533,8.533c4.719,0,8.533-3.823,8.533-8.533V332.8     c0-4.71-3.814-8.533-8.533-8.533C208.622,324.267,204.807,328.09,204.807,332.8z" fill="#FFFFFF"/>
			<path d="M8.541,409.6h34.133c4.719,0,8.533-3.823,8.533-8.533s-3.814-8.533-8.533-8.533H8.541c-4.719,0-8.533,3.823-8.533,8.533     S3.822,409.6,8.541,409.6z" fill="#FFFFFF"/>
			<path d="M8.541,307.2h256c23.526,0,42.667-19.14,42.667-42.667v-256c0-4.71-3.814-8.533-8.533-8.533h-0.051     c-11.477,0-22.255,4.463-30.37,12.587L12.62,268.211c-7.945,7.945-12.39,18.441-12.57,29.636     c-0.026,0.273-0.043,0.538-0.043,0.819C0.007,303.377,3.822,307.2,8.541,307.2z M24.686,280.277L280.319,24.653     c2.816-2.816,6.161-4.907,9.822-6.17v246.05c0,14.114-11.486,25.6-25.6,25.6H18.508     C19.762,286.464,21.853,283.102,24.686,280.277z" fill="#FFFFFF"/>
			<path d="M499.429,182.997L338.841,22.417c-3.336-3.328-8.73-3.328-12.066,0c-3.337,3.337-3.337,8.738,0,12.075l160.589,160.572     c10.095,10.103,10.095,26.53,0,36.634L231.73,487.322c-10.095,10.086-26.522,10.103-36.625,0L34.422,326.647     c-3.328-3.328-8.73-3.328-12.066,0c-3.337,3.337-3.337,8.738,0,12.066l160.683,160.674c8.38,8.38,19.379,12.57,30.379,12.57     c11.008,0,22.007-4.19,30.379-12.57l255.633-255.625C516.18,227.012,516.18,199.757,499.429,182.997z" fill="#FFFFFF"/>
			<path d="M452.274,221.867c4.719,0,8.533-3.823,8.533-8.533c0-4.71-3.814-8.533-8.533-8.533H332.807     c-4.719,0-8.533,3.823-8.533,8.533c0,4.71,3.814,8.533,8.533,8.533H452.274z" fill="#FFFFFF"/>
			<path d="M128.007,494.933H8.541c-4.719,0-8.533,3.823-8.533,8.533S3.822,512,8.541,512h119.467c4.719,0,8.533-3.823,8.533-8.533     S132.726,494.933,128.007,494.933z" fill="#FFFFFF"/>
			<path d="M8.541,460.8h68.267c4.719,0,8.533-3.823,8.533-8.533c0-4.71-3.814-8.533-8.533-8.533H8.541     c-4.719,0-8.533,3.823-8.533,8.533C0.007,456.977,3.822,460.8,8.541,460.8z" fill="#FFFFFF"/>
		</g>
	</g>
</g>
<g>
</g>
<g>
</g>
<g>
</g>
<g>
</g>
<g>
</g>
<g>
</g>
<g>
</g>
<g>
</g>
<g>
</g>
<g>
</g>
<g>
</g>
<g>
</g>
<g>
</g>
<g>
</g>
<g>
</g>
</svg>
