<svg height="32" viewBox="0 0 227 32" width="227" xmlns="http://www.w3.org/2000/svg"><g fill="#007dc5"><path d="m24.9623846 7.35155943c1.3166972-2.74311919 1.7007339-5.15706408.3840367-6.4188989-1.7007339-1.59100914-4.7730274-.38403669-6.4188989.38403668-1.7555963-.82293576-3.6757797-1.31669721-5.7605503-1.31669721-7.29669703 0-13.1669721 5.87027507-13.1669721 13.1669721 0 2.0847706.49376145 4.0598164 1.3715596 5.8154127-1.31669722 2.7431192-1.64587152 5.1022017-.38403669 6.4188989.54862384.5486238 2.30422012 1.7007339 6.4188989-.3840367 11.08220149 5.431376 23.09706359-6.3640365 17.55596279-17.66568757zm-23.04220117 17.00733897c-.6583486-.6034862-.54862383-2.0847706.27431192-4.004954.65834861 1.0423853 1.53614675 1.9750458 2.46880727 2.7431192 2.52366966-.8229358 6.63834848-3.4563302 10.86275198-7.6807338 4.6633026-4.6633026 6.9126604-8.66825659 7.6807337-10.86275194-.8229357-.93266053-1.7555962-1.75559629-2.7431191-2.46880728 1.0423853-.43889907 3.0722935-1.04238529 4.004954-.27431191 1.6458715 1.48128436-1.3166972 7.90018326-7.9001833 14.53853173-5.0473393 4.9924769-12.61834827 9.8752291-14.64825647 8.009908z" transform="translate(28.274619 .166696)"/><g><path d="m29.5877575.73051564-4.0520585 20.17547576c-.437365 2.2417196-1.3249588 4.2000033-2.6627812 5.8748512-1.3120952 1.6748479-2.9715096 2.9631925-4.9782433 3.8650337s-4.2192862 1.3527618-6.6376576 1.3527618c-2.21255257 0-4.3221957-.3865034-6.32892941-1.1595101-1.98100635-.7472399-3.55037502-1.7263817-4.708106-2.9374256l3.47319295-4.4834391c.84900272.7987736 1.91668797 1.4300625 3.20305573 1.8938665 1.31209511.4380372 2.5855992.6570557 3.82051223.6570557 1.3120951 0 2.5212808-.2447854 3.6275571-.7343564 1.1320036-.5153378 2.0710521-1.2110438 2.8171454-2.0871181.7718207-.8760743 1.2606404-1.8552162 1.4664592-2.9374256l.4245014-2.0484679c-1.0805489 1.185277-2.3025983 2.1000016-3.6661481 2.7441739s-2.8300091.9662584-4.3993778.9662584c-2.49555341 0-4.47655976-.7343564-5.94301901-2.2030692-1.44073189-1.4687128-2.16109784-3.4269965-2.16109784-5.8748511 0-.7987737.07718207-1.6361976.2315462-2.5122719l2.1225068-10.55154196h7.02356795l-2.0453247 10.43559096c-.0771821.4122702-.1157731.8245405-.1157731 1.2368107 0 1.0306757.3087283 1.8423328.9261848 2.4349713.6431839.5668716 1.5307776.8503074 2.6627812.8503074 1.5950961 0 3.035828-.5153379 4.3221957-1.5460135 1.3120951-1.0306757 2.1739615-2.3447871 2.5855992-3.9423344l1.8909606-9.46933246z"/><path d="m64.3901693 28.1722547c-2.315462 0-4.1421042-.6570557-5.4799267-1.9711671-1.3378225-1.3141115-2.0067337-3.1049104-2.0067337-5.3723969 0-.9018411.0900457-1.765032.2701372-2.5895725l3.473193-17.50860256h7.1779321l-3.1644647 15.80798776c-.1029094.4122702-.1543641.8631908-.1543641 1.3527618 0 1.1595101.3473192 2.0871181 1.0419578 2.7828242.6946386.6699392 1.6465508 1.0049088 2.8557365 1.0049088 1.6465507 0 3.1001463-.5282213 4.3607867-1.5846639 1.2863677-1.0822094 2.1225068-2.4736215 2.5084171-4.1742363l3.0486916-15.18958236h7.062159l-5.4027446 27.09388606h-7.062159l.8104117-4.0582854c-1.2091857 1.4171791-2.6113266 2.5122719-4.2064226 3.2852787-1.595096.7472398-3.3059651 1.1208597-5.1326073 1.1208597z"/><path d="m110.925793 8.38328231c0 2.47362159-.578865 4.63804039-1.736596 6.49325659-1.157731 1.8294493-2.817146 3.2208614-4.978243 4.1742364l3.781921 8.7736264h-8.026935l-2.4312351-7.4981653h-.1157731-5.0940163l-1.5050503 7.4981653h-7.062159l5.4027446-27.09388606h12.1561752c3.087283 0 5.454199.66993917 7.10075 2.00981751 1.672278 1.33987834 2.508417 3.2208614 2.508417 5.64294916zm-17.4817376 6.30000489h5.0940164c1.7237332 0 3.0744192-.4509206 4.0520582-1.3527618.97764-.9018412 1.466459-2.1515354 1.466459-3.74908265 0-1.03067564-.334455-1.81656582-1.003366-2.35767054-.643184-.5668716-1.582233-.85030741-2.817146-.85030741h-5.1326072z"/><path d="m127.151784 21.7949492h11.461537l-1.196322 6.0294525h-18.523696l5.402745-27.09388606h7.062159z"/><path d="m156.353404.30536193c2.572736 0 4.862471.55398817 6.869204 1.66196448 2.032461 1.08220943 3.614694 2.58957257 4.746697 4.5220894 1.132004 1.93251684 1.698006 4.10981919 1.698006 6.53190689 0 2.8085912-.720366 5.3852803-2.161098 7.7300674s-3.396011 4.2000032-5.865837 5.5656485c-2.469826 1.3398783-5.171198 2.0098175-8.104117 2.0098175-2.572735 0-4.875334-.5539882-6.907795-1.6619645-2.006734-1.1079763-3.576102-2.6282229-4.708106-4.5607397-1.106276-1.9582838-1.659414-4.161353-1.659414-6.6092076 0-2.8343581.720366-5.4110472 2.161098-7.73006737 1.440732-2.31902021 3.383147-4.13558604 5.827246-5.44969748 2.469826-1.33987834 5.171198-2.00981752 8.104116-2.00981752zm-.501683 5.9908022c-1.440732 0-2.804282.38650337-4.090649 1.1595101-1.286368.77300674-2.315462 1.82944928-3.087283 3.16932757-.771821 1.3398784-1.157731 2.7957077-1.157731 4.3674881 0 1.3656452.295865 2.602456.887594 3.7104323s1.402141 1.9840506 2.431235 2.6282229 2.161098.9662584 3.396011.9662584c1.415004 0 2.752827-.3865033 4.013467-1.1595101 1.26064-.7987736 2.264007-1.8680996 3.010101-3.2079779.746093-1.3398784 1.11914-2.8085911 1.11914-4.4061384 0-1.3656452-.283001-2.5895726-.849003-3.67178199-.566002-1.10797632-1.350686-1.97116717-2.354053-2.58957256-1.003367-.64417228-2.109643-.96625842-3.318829-.96625842z"/><path d="m190.233582 13.7556791h6.097383l-2.778554 14.0687226h-5.171199l.308728-1.6233141c-2.161097 1.417179-4.335059 2.1257685-6.521884 2.1257685-2.392644 0-4.540878-.5539882-6.444703-1.6619645-1.878097-1.1079763-3.344556-2.6282229-4.399377-4.5607397-1.029095-1.9325169-1.543642-4.1098192-1.543642-6.531907 0-2.834358.720366-5.4110471 2.161098-7.7300673 1.466459-2.3447871 3.447466-4.18711981 5.943019-5.52699815 2.495554-1.33987834 5.222653-2.00981752 8.181299-2.00981752 2.032461 0 4.026331.37361993 5.98161 1.12085977 1.955279.72147295 3.576103 1.70061482 4.86247 2.93742559l-4.51515 4.94724311c-.849003-.92760809-1.890961-1.66196448-3.125874-2.2030692-1.209186-.54110471-2.444099-.81165707-3.704739-.81165707-1.517914 0-2.932919.38650337-4.245014 1.1595101-1.312095.77300674-2.354053 1.82944928-3.125874 3.16932757-.77182 1.3398784-1.157731 2.8214746-1.157731 4.4447888 0 1.3656452.270138 2.602456.810412 3.7104323.566002 1.0822094 1.337823 1.9454003 2.315462 2.5895726 1.003367.6184053 2.135371.927608 3.396011.927608.951912 0 1.916688-.2061351 2.894327-.6184053.97764-.4122703 1.839506-.9791419 2.5856-1.7006149z"/><path d="m213.660418.30536193c2.572736 0 4.86247.55398817 6.869204 1.66196448 2.032461 1.08220943 3.614693 2.58957257 4.746697 4.5220894 1.132004 1.93251684 1.698006 4.10981919 1.698006 6.53190689 0 2.8085912-.720366 5.3852803-2.161098 7.7300674s-3.396011 4.2000032-5.865837 5.5656485c-2.469826 1.3398783-5.171199 2.0098175-8.104117 2.0098175-2.572736 0-4.875334-.5539882-6.907795-1.6619645-2.006734-1.1079763-3.576102-2.6282229-4.708106-4.5607397-1.106276-1.9582838-1.659414-4.161353-1.659414-6.6092076 0-2.8343581.720365-5.4110472 2.161097-7.73006737 1.440732-2.31902021 3.383148-4.13558604 5.827246-5.44969748 2.469826-1.33987834 5.171199-2.00981752 8.104117-2.00981752zm-.501683 5.9908022c-1.440732 0-2.804282.38650337-4.09065 1.1595101-1.286367.77300674-2.315462 1.82944928-3.087282 3.16932757-.771821 1.3398784-1.157731 2.7957077-1.157731 4.3674881 0 1.3656452.295864 2.602456.887593 3.7104323.59173 1.1079763 1.402141 1.9840506 2.431236 2.6282229 1.029094.6441723 2.161097.9662584 3.39601.9662584 1.415005 0 2.752827-.3865033 4.013468-1.1595101 1.26064-.7987736 2.264007-1.8680996 3.0101-3.2079779.746094-1.3398784 1.11914-2.8085911 1.11914-4.4061384 0-1.3656452-.283001-2.5895726-.849002-3.67178199-.566002-1.10797632-1.350687-1.97116717-2.354053-2.58957256-1.003367-.64417228-2.109643-.96625842-3.318829-.96625842z"/></g></g></svg>