<svg height="525" viewBox="0 0 526 525" width="526" xmlns="http://www.w3.org/2000/svg"><path d="m262.841617 363.06755 80.558513 80.731926-80.558513 80.731927-80.558512-80.731927zm-91.141552-91.337749 80.558512 80.731927-80.558512 80.731926-80.5585125-80.731926zm182.256294 0 80.558512 80.731927-80.558512 80.731926-80.558513-80.731926zm-91.114742-91.337748 80.558513 80.731927-80.558513 80.731926-80.558512-80.731926zm-182.2831047 0 80.5585127 80.731927-80.5585127 80.731926-80.5585123-80.731926zm364.5393987 0 80.558513 80.731927-80.558513 80.731926-80.558512-80.731926zm-273.397846-91.3377484 80.558512 80.7319264-80.558512 80.731927-80.5585125-80.731927zm182.256294 0 80.558512 80.7319264-80.558512 80.731927-80.558513-80.731927zm-89.975472-89.0543046 80.558512 80.7319265-80.558512 80.7319265-80.558513-80.7319265z" fill="#007dc5" fill-rule="evenodd"/></svg>