<?xml version="1.0" encoding="iso-8859-1"?>
<!-- Generator: Adobe Illustrator 16.0.0, SVG Export Plug-In . SVG Version: 6.00 Build 0)  -->
<!DOCTYPE svg PUBLIC "-//W3C//DTD SVG 1.1//EN" "http://www.w3.org/Graphics/SVG/1.1/DTD/svg11.dtd">
<svg version="1.1" id="Capa_1" xmlns="http://www.w3.org/2000/svg" xmlns:xlink="http://www.w3.org/1999/xlink" x="0px" y="0px"
	 width="519.425px" height="519.425px" viewBox="0 0 519.425 519.425" style="enable-background:new 0 0 519.425 519.425;"
	 xml:space="preserve">
<g>
	<g>
		<path d="M408.041,274.113h-23.006c-5.081,0-9.201,4.121-9.201,9.203s4.12,9.201,9.201,9.201h23.006
			c5.081,0,9.201-4.119,9.201-9.201S413.122,274.113,408.041,274.113z"/>
		<path d="M83.969,360.768c-8.043,0-14.567,6.525-14.567,14.568s6.524,14.566,14.567,14.566c8.042,0,14.566-6.523,14.566-14.566
			S92.011,360.768,83.969,360.768z"/>
		<path d="M510.224,239.607h-47.648l-25.388-68.741c-1.334-3.617-4.78-6.017-8.631-6.017h-43.521h-46.307v-58.716
			c0-5.082-4.119-9.202-9.201-9.202H9.202c-5.081,0-9.202,4.121-9.202,9.202v261.263c0,5.08,4.121,9.201,9.202,9.201h27.669
			c0.679,25.418,21.518,45.896,47.098,45.896c25.579,0,46.418-20.479,47.097-45.896H327.38c0.691,0.166,1.401,0.279,2.147,0.279
			h6.672c0.826,25.291,21.6,45.617,47.084,45.617s46.258-20.326,47.084-45.617h79.855c5.082,0,9.202-4.121,9.202-9.203V248.81
			C519.426,243.728,515.306,239.607,510.224,239.607z M442.957,239.607h-48.72v-56.353h27.906L442.957,239.607z M83.969,404.092
			c-15.856,0-28.757-12.9-28.757-28.756c0-15.857,12.9-28.756,28.757-28.756c15.855,0,28.756,12.897,28.756,28.756
			C112.725,391.192,99.824,404.092,83.969,404.092z M83.969,328.176c-19.954,0-37.011,12.474-43.89,30.019H18.404V115.336h301.922
			v58.716v184.142H127.858C120.979,340.65,103.923,328.176,83.969,328.176z M383.283,404.092c-15.856,0-28.756-12.9-28.756-28.756
			c0-15.857,12.898-28.756,28.756-28.756c15.856,0,28.756,12.897,28.756,28.756C412.039,391.192,399.14,404.092,383.283,404.092z
			 M501.021,358.473h-73.751c-6.802-17.688-23.93-30.297-43.986-30.297c-20.058,0-37.187,12.606-43.987,30.297h-0.566V183.254
			h37.104v65.555c0,5.082,4.12,9.201,9.201,9.201h71.127c0.036,0,0.072,0.004,0.09,0h44.77L501.021,358.473L501.021,358.473z"/>
		<circle cx="383.283" cy="375.335" r="14.567"/>
	</g>
</g>
<g>
</g>
<g>
</g>
<g>
</g>
<g>
</g>
<g>
</g>
<g>
</g>
<g>
</g>
<g>
</g>
<g>
</g>
<g>
</g>
<g>
</g>
<g>
</g>
<g>
</g>
<g>
</g>
<g>
</g>
</svg>
